<?xml version="1.0" encoding="UTF-8"?>
<svg width="46px" height="36px" viewBox="0 0 46 36" version="1.1" xmlns="http://www.w3.org/2000/svg" xmlns:xlink="http://www.w3.org/1999/xlink">
    <g stroke="none" stroke-width="1" fill="none" fill-rule="evenodd">
        <g fill="#1E1D1C" fill-rule="nonzero">
            <path d="M14,0 C6.28125,0 0,6.28125 0,14 L0,36 L20,36 L20,16 L9,16 L9,14 C9,10.140625 11.242188,7 14,7 L15,7 L15,0 L14,0 Z M40,0 C32.28125,0 26,6.28125 26,14 L26,36 L46,36 L46,16 L35,16 L35,14 C35,10.140625 37.242188,7 40,7 L41,7 L41,0 L40,0 Z" id="Shape"></path>
        </g>
    </g>
</svg>