<?xml version="1.0" encoding="UTF-8"?>
<svg width="24px" height="20px" viewBox="0 0 24 20" version="1.1" xmlns="http://www.w3.org/2000/svg" xmlns:xlink="http://www.w3.org/1999/xlink">
    <title>icons8-Color-13963-50-000000</title>
    <g id="Page-1" stroke="none" stroke-width="1" fill="none" fill-rule="evenodd">
        <g id="icons8-Color-13963-50-000000" fill="#03A9F4" fill-rule="nonzero">
            <path d="M23.8421053,2.491776 C22.9712173,2.879112 22.0361842,3.13569095 21.0468752,3.25657895 C22.0509865,2.66200674 22.8231909,1.70970379 23.1858556,0.587171368 C22.2483549,1.13733537 21.2072368,1.54194063 20.0995067,1.75657895 C19.2162827,0.819078947 17.9531248,0.236842105 16.5567436,0.236842105 C13.8725331,0.236842105 11.6965459,2.39309179 11.6965459,5.05263158 C11.6965459,5.43009853 11.7409541,5.79523011 11.8248354,6.15049326 C7.78618421,5.94819095 4.20394737,4.02878274 1.808388,1.11513158 C1.38651284,1.82812484 1.14967074,2.66200674 1.14967074,3.54029621 C1.14967074,5.21299326 2.00575642,6.683388 3.31085558,7.55180905 C2.51398042,7.52713832 1.76398042,7.30509853 1.10773011,6.94983537 C1.10773011,6.96463832 1.10773011,6.98684211 1.10773011,7.00657895 C1.10773011,9.34292779 2.78289474,11.2870067 5.00575642,11.7310857 C4.59868421,11.8421053 4.16940758,11.9037827 3.72779621,11.9037827 C3.41447368,11.9037827 3.10855263,11.8692436 2.8125,11.8149669 C3.42927663,13.7245067 5.22532926,15.120888 7.34950674,15.1603617 C5.68667747,16.4506579 3.59210526,17.2228617 1.31496695,17.2228617 C0.920230105,17.2228617 0.535361684,17.2006579 0.155427789,17.1537827 C2.30674358,18.5180918 4.86266463,19.3149669 7.60608568,19.3149669 C16.5444076,19.3149669 21.4317436,11.9753293 21.4317436,5.61019705 C21.4317436,5.40049326 21.4268091,5.19325642 21.4169406,4.98848716 C22.3692436,4.31496695 23.1932564,3.46381579 23.8421053,2.491776" id="Path"></path>
        </g>
    </g>
</svg>